<svg xmlns="http://www.w3.org/2000/svg" viewBox="0 0 87.84 87.84"><defs><style>.cls-1{fill:#fff;}.cls-2{fill:#001349;}.cls-3{fill:#c46200;}</style></defs><g id="Layer_2" data-name="Layer 2"><g id="Layer_1-2" data-name="Layer 1"><rect class="cls-1" width="87.84" height="87.84" rx="21.18"/><path class="cls-2" d="M67.79,25l-8.23,8.24a19,19,0,0,0-10-7.4V58.66a15.8,15.8,0,0,1-11.43-.08V25.89a19,19,0,0,0-9.81,7.34L20.05,25a30.46,30.46,0,0,1,47.74,0Z"/><path class="cls-3" d="M74.39,43.92A30.47,30.47,0,1,1,18.44,27.2l8.45,8.44a18.94,18.94,0,1,0,34.07,0L69.4,27.2A30.39,30.39,0,0,1,74.39,43.92Z"/></g></g></svg>